# xmcd CD database file
#
# Track frame offsets:
#	150
#	13332
#	26925
#	40719
#	54858
#	67101
#	80229
#	93558
#	103857
#	116787
#	129825
#	143559
#	156090
#	170378
#	181866
#	195242
#	209886
#	223725
#	236958
#	250539
#	264369
#	278988
#	293010
#	305310
#
# Disc length: 4261 seconds
#
# Revision: 1
# Processed by: cddbd v1.4PL0 Copyright (c) Steve Scherf et al.
# Submitted via: CDex 1.50Beta7
#
DISCID=6210a318
DTITLE=Charlie Parker - Ornithology
DYEAR=1999
DGENRE=Jazz
TTITLE0=Tiny's Tempo
TTITLE1=I'll Always Love You
TTITLE2=Romance Without Finance
TTITLE3=Red Cross
TTITLE4=What's The Matter Now?
TTITLE5=I Want Every Bit Of It
TTITLE6=That's The Blues
TTITLE7=4-F Blues
TTITLE8=Dream Of You
TTITLE9=Seventh Avenue
TTITLE10=Sorta Kinda
TTITLE11=Oh-Oh, My My, Oh Oh
TTITLE12=Dizzy's Boogie
TTITLE13=Flat Foot Boogie
TTITLE14=Poppity Pop
TTITLE15=Slim's Jam
TTITLE16=Moose The Mooche
TTITLE17=Yardbird Suite
TTITLE18=Ornithology
TTITLE19=Night In Tunisia
TTITLE20=This Is Always
TTITLE21=Dark Shadows
TTITLE22=Bird's Nest
TTITLE23=Cool Blues
EXTD=YEAR: 1999
EXTT0=
EXTT1=
EXTT2=
EXTT3=
EXTT4=
EXTT5=
EXTT6=
EXTT7=
EXTT8=
EXTT9=
EXTT10=
EXTT11=
EXTT12=
EXTT13=
EXTT14=
EXTT15=
EXTT16=
EXTT17=
EXTT18=
EXTT19=
EXTT20=
EXTT21=
EXTT22=
EXTT23=
PLAYORDER=
